<?xml version="1.0" encoding="UTF-8"?><svg id="_圖層_1" xmlns="http://www.w3.org/2000/svg" viewBox="0 0 226.09 72"><defs><style>.cls-1{fill:#fff;}</style></defs><g><path class="cls-1" d="M108.55,13.5l-6.5,11.25c-4.02,6.96-11.45,11.25-19.49,11.25H41.56l6.5-11.25c4.02-6.96,11.45-11.25,19.49-11.25h41.01"/><g><polygon class="cls-1" points="96.2 11.5 102.84 0 75.84 0 69.2 11.5 96.2 11.5"/><path class="cls-1" d="M53.9,38l-2.74,4.75c-2.41,4.18-6.87,6.75-11.69,6.75h-11.41c-3.46,0-5.63-3.75-3.9-6.75L48.84,0h-14.01c-8.04,0-15.47,4.29-19.49,11.25L3.66,31.5c-10.39,18,2.6,40.5,23.38,40.5h8.25c16.08,0,30.93-8.58,38.97-22.5l6.64-11.5h-27Z"/></g></g><g><path class="cls-1" d="M116.76,50.15c-1.46-3.16-4.07-4.74-7.53-4.74-4.61,0-7.77,3.82-7.77,8.56s3.34,8.56,8.01,8.56c3.4,0,5.77-1.58,7.28-4.49h10.26c-2,8.44-9.23,13.9-17.85,13.9-9.96,0-17.85-8.07-17.85-18.03s7.95-17.91,17.67-17.91c8.86,0,16.09,5.59,17.97,14.14h-10.2Z"/><path class="cls-1" d="M156.4,70.85v-3.64h-.12c-1.46,2.97-5.46,4.8-9.9,4.8-9.96,0-16.88-7.83-16.88-18.03s7.22-17.97,16.88-17.97c4.13,0,7.95,1.64,9.9,4.74h.12v-3.58h10.08v33.69h-10.08Zm0-16.88c0-4.74-3.82-8.56-8.56-8.56s-8.26,3.82-8.26,8.68,3.7,8.5,8.38,8.5,8.44-3.76,8.44-8.62Z"/><path class="cls-1" d="M172.31,70.85V37.15h9.47v3.58h.12c1.76-3.58,4.55-4.74,8.44-4.74v10.14c-6.01,.06-7.95,2.31-7.95,6.13v18.58h-10.08Z"/><path class="cls-1" d="M200.6,57.07c.55,3.82,3.76,6.37,7.89,6.37,2.73,0,4.49-1.03,6.13-3.16h10.32c-3.22,7.35-9.35,11.66-16.45,11.66-9.71,0-17.85-7.83-17.85-17.85s7.77-18.09,17.67-18.09,17.79,7.95,17.79,18.39c0,.97-.06,1.76-.24,2.67h-25.25Zm15.42-6.8c-.79-3.46-3.82-5.77-7.71-5.77-3.64,0-6.8,2.19-7.59,5.77h15.3Z"/></g></svg>