<?xml version="1.0" encoding="UTF-8"?><svg id="_圖層_1" xmlns="http://www.w3.org/2000/svg" viewBox="0 0 677.56 97"><defs><style>.cls-1{fill:#f4364c;}.cls-2{fill:#003c71;}</style></defs><path class="cls-2" d="M102.18,0l-33.25,57.59c-3.25,5.63-9.26,9.1-15.76,9.1h-15.37c-3.35,0-6.07-2.73-6.06-6.08,0-1.06,.28-2.1,.81-3.02L65.8,0h-18.87c-10.84,0-20.85,5.77-26.27,15.16L4.93,42.44c-14,24.25,3.5,54.56,31.5,54.56h11.12c21.66,0,41.67-11.56,52.5-30.31L138.55,0h-36.37Z"/><path class="cls-1" d="M111.24,48.5H56l8.76-15.16c5.42-9.37,15.42-15.14,26.24-15.15h55.25l-8.75,15.15c-5.42,9.38-15.43,15.16-26.26,15.16Z"/><path class="cls-2" d="M157.3,67.56c-1.7-4.05-5.75-6.6-10.14-6.38-6.22,0-10.47,5.15-10.47,11.53s4.49,11.53,10.79,11.53c4.18,.16,8.06-2.2,9.82-6h13.82c-2.7,11.37-12.43,18.76-24.05,18.76-13.3-.04-24.04-10.86-24-24.16h0v-.13c-.16-13.17,10.38-23.97,23.55-24.13,0,0,0,0,0,0h.25c11.94,0,21.67,7.52,24.21,19.06l-13.78-.08Z"/><path class="cls-2" d="M210.66,95.45v-4.91h-.16c-2,4-7.36,6.46-13.33,6.46-13.41,0-22.74-10.55-22.74-24.29s9.74-24.21,22.74-24.21c5.56,0,10.71,2.21,13.33,6.38h.16v-4.83h13.58v45.4h-13.58Zm0-22.74c.01-6.36-5.13-11.52-11.49-11.53h0c-6.21,0-11.12,5.15-11.12,11.69-.26,6.25,4.59,11.53,10.84,11.8,6.25,.26,11.53-4.59,11.8-10.84,0-.15,0-.31,0-.46-.03-.21-.03-.43-.04-.65Z"/><path class="cls-2" d="M232.13,95.45V50.05h12.76v4.83h.17c2.37-4.83,6.13-6.38,11.36-6.38v13.66c-8.09,.08-10.71,3.11-10.71,8.26v25l-13.58,.03Z"/><path class="cls-2" d="M270.25,76.88c.73,5.15,5.07,8.59,10.63,8.59,3.68,0,6-1.39,8.26-4.26h13.86c-4.33,9.9-12.59,15.71-22.16,15.71-13.25,.03-24.02-10.7-24.05-23.95,0-.02,0-.03,0-.05h0c0-13.08,10.47-24.37,23.8-24.37s24,10.71,24,24.78c.01,1.21-.1,2.41-.33,3.6l-34.01-.05Zm20.75-9.16c-1-4.66-5.13-7.72-10.34-7.72-4.9,0-9.16,2.94-10.22,7.77l20.56-.05Z"/><g><path class="cls-2" d="M394.2,52.76c-3.05,11.47-8.42,20.22-15.35,27.15,7.01,4.37,15.43,7.51,25.5,9.24-1.73,1.65-3.88,4.87-4.95,7.01-10.48-2.31-19.31-5.94-26.57-11.22-6.93,5.12-14.85,8.75-23.44,11.39-.99-2.06-2.89-4.95-4.37-6.6,7.92-1.98,15.35-5.2,21.7-9.74-5.12-4.95-9.32-10.89-12.71-17.74-3.71,11.55-9.57,23.02-18.98,31.27-1.48-1.9-4.04-3.88-6.6-5.28,14.52-11.8,20.22-31.77,22.45-47.2h-19.47v-7.43h20.47c.58-6.02,.66-10.73,.83-13.12h7.92c-.17,2.81-.33,7.34-.91,13.12h42.5v7.43h-43.49c-.41,3.05-.99,6.44-1.65,9.82h30.53l1.49-.33,5.12,2.23Zm-34.41,5.53c3.05,6.52,7.34,12.3,12.79,16.92,4.87-4.62,8.83-10.32,11.55-16.92h-24.34Z"/><path class="cls-2" d="M419.86,93.53c3.47-4.04,7.67-10.81,10.4-16.83l7.34,1.98c-2.81,6.19-6.85,13.37-10.4,18.07l-7.34-3.22Zm11.06-18.15h-7.18V23.96h24.76v47.45h-17.58v3.96Zm0-44.56v12.71h10.48v-12.71h-10.48Zm10.48,33.75v-14.28h-10.48v14.28h10.48Zm9.66,13.95c.99,5.28,1.9,12.21,1.98,16.34l-7.51,1.24c-.08-4.21-.74-11.3-1.65-16.75l7.18-.82Zm20.88-47.94c-1.82,9.41-6.35,16.01-18.98,19.81-.66-1.73-2.56-4.37-4.04-5.69,10.23-2.81,13.86-7.34,15.43-14.11h-12.79v-6.77h41.18s0,1.73-.08,2.72c-.74,11.55-1.57,16.59-3.3,18.48-1.4,1.49-2.97,2.06-5.2,2.23-1.9,.25-5.53,.25-9.24,.08-.16-1.98-.91-4.54-1.98-6.27,3.3,.33,6.44,.33,7.76,.33,1.16,0,1.9-.08,2.39-.74,.91-.91,1.49-3.63,1.98-10.07h-13.12Zm18.4,43.49h-36.31v-23.35h36.31v23.35Zm-7.51-17.16h-21.62v10.98h21.62v-10.98Zm-14.36,20.88c2.15,5.12,4.29,12.05,5.03,16.34l-7.59,1.73c-.66-4.29-2.56-11.39-4.62-16.75l7.18-1.32Zm16.5-1.73c3.63,5.28,8.17,12.46,10.15,17.16l-7.34,3.22c-1.82-4.54-6.11-12.13-9.74-17.58l6.93-2.81Z"/><path class="cls-2" d="M558.65,65.06v3.22h19.31v27.89h-7.18v-2.81h-45.14v2.81h-6.93v-27.89h20.71v-3.22h-28.96v-5.12h75.42v5.12h-27.23Zm-43.65-37.38h-2.56v-4.62h36.56v4.62h-27.97v21.21c0,2.89,.66,3.88,3.55,3.88h16.34c2.31,0,6.02-.08,7.76-.5,.16,1.65,.41,3.55,.66,4.79-1.49,.41-4.79,.5-7.92,.5h-17.16c-7.18,0-9.24-2.39-9.24-8.83V27.68Zm13.7,7.34c-.91,1.24-1.81,2.31-2.81,3.3-.83-.74-2.89-1.9-3.96-2.39,2.56-2.39,4.54-5.28,5.69-8.25l4.54,1.07c-.33,.74-.66,1.57-1.07,2.39h15.35v3.88h-8.5v3.71h9.9v4.04h-9.74c3.3,1.98,6.93,4.46,8.91,6.19l-3.14,3.38c-1.73-1.73-5.03-4.13-8.25-6.11-1.65,2.31-4.62,4.7-9.49,6.52-.66-1.24-2.15-2.72-3.22-3.63,5.53-1.57,8-4.04,9.16-6.35h-9.49v-4.04h10.31v-3.71h-4.21Zm42.09,53.97v-8.99h-10.15c-6.44,0-8.01-1.07-8.01-5.69v-1.65h-7.34c-.91,4.21-4.95,7.26-16.34,8.99-.66-1.24-2.15-3.3-3.3-4.37,8.83-.82,12.21-2.56,13.37-4.62h-13.37v16.34h45.14Zm-38.7-6.68h33.34v4.04h-33.34v-4.04Zm20.55-17.25h-7.18v3.22h7.18v-3.22Zm-1.07-25.91c-.91-1.4-2.89-3.63-3.96-4.46,6.27-2.31,7.34-5.03,7.34-7.84v-4.21h20.47v6.93c0,1.57,.16,2.06,1.16,2.06h3.3c.99,0,2.64-.16,3.55-.41,.16,1.57,.33,3.63,.5,5.12-.91,.33-2.39,.41-3.8,.41h-4.46c-5.2,0-6.27-2.15-6.27-7.26v-1.49h-8.5c-.25,3.55-1.73,7.18-6.6,10.07h20.79l1.16-.16,3.71,1.57c-1.9,4.54-4.7,8.17-8.25,11.14,3.8,1.73,7.34,3.3,9.82,4.7l-2.81,4.46c-2.89-1.57-7.18-3.63-11.8-5.78-4.37,2.64-9.41,4.46-14.52,5.78-.66-1.4-2.06-3.55-3.14-4.7,3.96-.82,7.92-2.15,11.55-3.8-3.22-1.4-6.35-2.72-9.24-3.88l2.72-3.88c3.55,1.32,7.67,2.97,11.72,4.7,2.23-1.65,4.13-3.47,5.61-5.45h-20.05v-3.63Zm7.1,33.5v1.73c0,1.57,.41,1.81,2.64,1.81h8.25c.58,0,.91,0,1.24-.08v-3.47h-12.13Z"/><path class="cls-2" d="M674.84,50.2c-1.9,2.06-4.29,3.88-6.35,5.45,2.89,1.98,5.94,3.71,9.08,4.87-1.4,1.32-3.47,3.71-4.37,5.45-2.06-.91-3.96-2.06-5.94-3.3v15.1h-15.1v11.55c0,3.38-.66,5.03-3.14,6.02-2.56,.99-6.11,1.07-11.3,1.07-.41-1.9-1.49-4.54-2.48-6.19,3.63,.08,7.1,.08,8.17,0,1.07,0,1.4-.25,1.4-1.16v-11.31h-14.85v-15.02c-1.81,1.24-3.88,2.48-6.02,3.63-.91-1.57-2.72-3.71-4.29-4.79-.66,11.64-3.3,25.5-11.64,34.74-1.16-1.49-3.96-4.21-5.36-5.03,5.86-6.68,8.33-15.18,9.41-23.44-3.14,1.9-6.27,3.8-9.41,5.45l-2.39-6.85c3.22-1.32,7.67-3.71,12.46-6.11,.08-2.23,.08-4.21,.08-6.27V27.76h27.97c-.5-1.98-1.24-3.96-1.81-5.78l7.67-1.57c.99,2.23,1.98,5.03,2.72,7.34h27.31v6.52h-56.77v19.81c0,2.23-.08,4.46-.16,6.93,3.38-1.65,6.35-3.47,8.99-5.53-1.73-1.57-3.8-3.22-5.69-4.54l4.04-3.47c1.82,1.24,4.04,2.81,5.86,4.37,1.73-1.73,3.13-3.38,4.46-5.2h-14.19v-5.94h17.74c1.16-2.15,1.98-4.29,2.56-6.44l7.18,.99c-.5,1.81-1.24,3.71-2.06,5.45h27.23v5.94h-16.59c1.57,2.06,3.3,3.96,5.28,5.78,2.06-1.81,4.37-3.88,5.69-5.45l4.62,3.22Zm-68.66,3.3c-.91-4.04-3.05-11.06-4.87-16.26l5.69-2.15c1.98,5.03,4.21,11.8,5.12,15.68l-5.94,2.72Zm31.36,27.73c-3.55,4.54-8.66,9.98-12.54,13.37-1.32-1.24-4.13-3.3-5.86-4.37,4.04-3.05,8.58-7.43,11.55-11.3l6.85,2.31Zm23.02-21.29h-24.1v4.21h24.1v-4.21Zm0,8.75h-24.1v4.21h24.1v-4.21Zm-15.1-22.03c-1.81,2.97-3.96,5.86-6.52,8.5h19.56c-2.48-2.56-4.54-5.53-6.27-8.5h-6.77Zm17.58,32.1c3.96,3.8,9.49,9.24,12.21,12.54l-5.86,3.63c-2.56-3.22-7.84-8.91-11.88-12.96l5.53-3.22Z"/></g></svg>